<svg xmlns="http://www.w3.org/2000/svg" width="103.049" height="102.78" viewBox="0 0 103.049 102.78">
  <defs>
    <style>
      .cls-1 {
        fill: #012f56;
      }
    </style>
  </defs>
  <path id="icons8_easter_rabbit" class="cls-1" d="M65.856,4.063c-18.45,0-28.6,13.837-30.727,16.906H30.836a26.374,26.374,0,0,0-19.322,8.856C6.885,34.823,4,40.877,4,46.731v1.745l1.208,1.207a36.638,36.638,0,0,0,20.529,9.661,40.886,40.886,0,0,0,2.147,10.6c1.107,3.186,1.878,5.015,1.878,8.587a28.966,28.966,0,0,1-3.489,5.1,52.8,52.8,0,0,1-4.16,3.891,8.415,8.415,0,0,0-4.025,2.013c-2.818,2.348-5.5,6.742-5.5,13.015v4.294H34.056V98.255H22.785c.352-.5.436-1.845.805-2.147a4.945,4.945,0,0,1,1.878-1.073l1.073-.134.805-.671a53.933,53.933,0,0,0,5.1-4.7c2.583-2.717,5.9-5.82,5.9-11a31.3,31.3,0,0,0-2.415-11.405A28.652,28.652,0,0,1,34.19,59.21a38.429,38.429,0,0,0,8.051-2.415l-3.086-8.051s-6.374,2.281-9.527,2.281A24.3,24.3,0,0,1,12.99,44.987a19.273,19.273,0,0,1,4.83-9.258c3.338-3.606,7.782-6.172,13.015-6.172h8.453l1.342-1.878S50.778,12.65,65.856,12.65c1.627,0,2.549.889,2.549,2.147v.134a2,2,0,0,1-2.012,2.013c-8.437.872-14.709,3.723-18.919,6.843a23.007,23.007,0,0,0-4.83,4.83C41.486,30.177,40.5,31.2,40.5,33.85a9.6,9.6,0,0,1,2.147,5.9,12.159,12.159,0,0,0,4.16,8.99,22.088,22.088,0,0,0,8.185,4.294,55.579,55.579,0,0,0,16.1,2.281c16.538,0,23.079,10.281,23.079,16.906,0,3.371-1.225,4.747-3.22,6.977a37.828,37.828,0,0,0-3.22,4.025,11.711,11.711,0,0,0-2.147,6.441c0,3.606,1.476,6.206,2.55,8.319.067.134.067.151.134.268H50.694c3.1-2,8.889-4.294,22.005-4.294V85.374A42.618,42.618,0,0,1,60.891,83.63,12.155,12.155,0,0,1,56.6,81.349a2.709,2.709,0,0,1-1.073-2.415,2.757,2.757,0,0,1,.939-2.012,10.952,10.952,0,0,1,3.354-2.281,25.277,25.277,0,0,1,8.587-2.147V63.906a30.135,30.135,0,0,0-12.344,2.952,18.4,18.4,0,0,0-6.038,4.294,11.829,11.829,0,0,0-3.086,7.782,12.211,12.211,0,0,0,3.757,8.722c.218.2.453.352.671.537a23.509,23.509,0,0,0-8.587,4.7,14.165,14.165,0,0,0-4.16,6.575,11.09,11.09,0,0,0-.268,3.757l.671,3.623H98.461v-4.294c0-3.623-1.476-6.34-2.549-8.453s-1.745-3.59-1.745-4.428a2.323,2.323,0,0,1,.537-1.61c.5-.738,1.526-1.795,2.684-3.086.1-.1.168-.286.268-.4a6.516,6.516,0,0,0,2.952.805,6.442,6.442,0,0,0,6.441-6.441,6.353,6.353,0,0,0-4.294-6.038c.017-.235,0-.436,0-.671,0-12.109-11.439-25.494-31.666-25.494a50.923,50.923,0,0,1-13.552-1.878A14.262,14.262,0,0,1,52.572,42.3a2.924,2.924,0,0,1-1.342-2.55,20.356,20.356,0,0,0-1.073-6.709,15.454,15.454,0,0,1,2.415-2.281A29.745,29.745,0,0,1,67.2,25.531h.134a10.854,10.854,0,0,0,9.661-10.6V14.8C76.993,8.675,71.592,4.063,65.856,4.063ZM25.468,33.85a4.294,4.294,0,1,0,4.294,4.294A4.3,4.3,0,0,0,25.468,33.85Z" transform="translate(-4 -4.063)"/>
</svg>
